<mxfile host="app.diagrams.net" modified="2020-06-21T11:13:48.231Z" agent="5.0 (Windows NT 10.0; Win64; x64) AppleWebKit/537.36 (KHTML, like Gecko) Chrome/83.0.4103.106 Safari/537.36" etag="ezjrxzgd8_t5atbmkOjM" version="13.3.0" type="github">
  <diagram id="cRHkuiiAFSz8jvQSCR0-" name="Page-1">
    <mxGraphModel dx="1422" dy="804" grid="1" gridSize="10" guides="1" tooltips="1" connect="1" arrows="1" fold="1" page="1" pageScale="1" pageWidth="850" pageHeight="1100" background="none" math="0" shadow="0">
      <root>
        <mxCell id="0" />
        <mxCell id="1" parent="0" />
        <mxCell id="vwxL3VdeQS7a6y01JX-I-2" value="" style="shape=image;verticalLabelPosition=bottom;labelBackgroundColor=#ffffff;verticalAlign=top;aspect=fixed;imageAspect=0;image=data:image/png,iVBORw0KGgoAAAANSUhEUgAAAyQAAAJNCAYAAADAhrEiAAAgAElEQVR4Ae3XsQnDQBBFQfXiAoRzqwCBYxfg/nuQWBVxLxnBgbKF4Sdv+/7+12s/PAY2YAM2YAM2YAM2YAM2YANLNzAtsk2M+AgQIECAAAECBAgQILBaYFpEkKxWd48AAQIECBAgQIAAgUdAkBgCAQIECBAgQIAAAQKZgCDJ6B0mQIAAAQIECBAgQECQ2AABAgQIECBAgAABApmAIMnoHSZAgAABAgQIECBAQJDYAAECBAgQIECAAAECmYAgyegdJkCAAAECBAgQIEBAkNgAAQIECBAgQIAAAQKZgCDJ6B0mQIAAAQIECBAgQECQ2AABAgQIECBAgAABApmAIMnoHSZAgAABAgQIECBAQJDYAAECBAgQIECAAAECmYAgyegdJkCAAAECBAgQIEBAkNgAAQIECBAgQIAAAQKZgCDJ6B0mQIAAAQIECBAgQECQ2AABAgQIECBAgAABApmAIMnoHSZAgAABAgQIECBAQJDYAAECBAgQIECAAAECmYAgyegdJkCAAAECBAgQIEBAkNgAAQIECBAgQIAAAQKZgCDJ6B0mQIAAAQIECBAgQECQ2AABAgQIECBAgAABApmAIMnoHSZAgAABAgQIECBAQJDYAAECBAgQIECAAAECmYAgyegdJkCAAAECBAgQIEBAkNgAAQIECBAgQIAAAQKZgCDJ6B0mQIAAAQIECBAgQECQ2AABAgQIECBAgAABApmAIMnoHSZAgAABAgQIECBAQJDYAAECBAgQIECAAAECmYAgyegdJkCAAAECBAgQIEBAkNgAAQIECBAgQIAAAQKZgCDJ6B0mQIAAAQIECBAgQECQ2AABAgQIECBAgAABApmAIMnoHSZAgAABAgQIECBAQJDYAAECBAgQIECAAAECmYAgyegdJkCAAAECBAgQIEBAkNgAAQIECBAgQIAAAQKZgCDJ6B0mQIAAAQIECBAgQECQ2AABAgQIECBAgAABApmAIMnoHSZAgAABAgQIECBAQJDYAAECBAgQIECAAAECmYAgyegdJkCAAAECBAgQIEBAkNgAAQIECBAgQIAAAQKZgCDJ6B0mQIAAAQIECBAgQECQ2AABAgQIECBAgAABApmAIMnoHSZAgAABAgQIECBAQJDYAAECBAgQIECAAAECmYAgyegdJkCAAAECBAgQIEBAkNgAAQIECBAgQIAAAQKZgCDJ6B0mQIAAAQIECBAgQECQ2AABAgQIECBAgAABApmAIMnoHSZAgAABAgQIECBAQJDYAAECBAgQIECAAAECmYAgyegdJkCAAAECBAgQIEBAkNgAAQIECBAgQIAAAQKZgCDJ6B0mQIAAAQIECBAgQECQ2AABAgQIECBAgAABApmAIMnoHSZAgAABAgQIECBAQJDYAAECBAgQIECAAAECmYAgyegdJkCAAAECBAgQIEBAkNgAAQIECBAgQIAAAQKZgCDJ6B0mQIAAAQIECBAgQECQ2AABAgQIECBAgAABApmAIMnoHSZAgAABAgQIECBAQJDYAAECBAgQIECAAAECmYAgyegdJkCAAAECBAgQIEBAkNgAAQIECBAgQIAAAQKZgCDJ6B0mQIAAAQIECBAgQECQ2AABAgQIECBAgAABApmAIMnoHSZAgAABAgQIECBAQJDYAAECBAgQIECAAAECmYAgyegdJkCAAAECBAgQIEBAkNgAAQIECBAgQIAAAQKZgCDJ6B0mQIAAAQIECBAgQECQ2AABAgQIECBAgAABApmAIMnoHSZAgAABAgQIECBAQJDYAAECBAgQIECAAAECmYAgyegdJkCAAAECBAgQIEBAkNgAAQIECBAgQIAAAQKZgCDJ6B0mQIAAAQIECBAgQECQ2AABAgQIECBAgAABApmAIMnoHSZAgAABAgQIECBAQJDYAAECBAgQIECAAAECmYAgyegdJkCAAAECBAgQIEBAkNgAAQIECBAgQIAAAQKZgCDJ6B0mQIAAAQIECBAgQECQ2AABAgQIECBAgAABApmAIMnoHSZAgAABAgQIECBAQJDYAAECBAgQIECAAAECmYAgyegdJkCAAAECBAgQIEBAkNgAAQIECBAgQIAAAQKZgCDJ6B0mQIAAAQIECBAgQECQ2AABAgQIECBAgAABApmAIMnoHSZAgAABAgQIECBAQJDYAAECBAgQIECAAAECmYAgyegdJkCAAAECBAgQIEBAkNgAAQIECBAgQIAAAQKZgCDJ6B0mQIAAAQIECBAgQECQ2AABAgQIECBAgAABApmAIMnoHSZAgAABAgQIECBAQJDYAAECBAgQIECAAAECmYAgyegdJkCAAAECBAgQIEBAkNgAAQIECBAgQIAAAQKZgCDJ6B0mQIAAAQIECBAgQECQ2AABAgQIECBAgAABApmAIMnoHSZAgAABAgQIECBAQJDYAAECBAgQIECAAAECmYAgyegdJkCAAAECBAgQIEBAkNgAAQIECBAgQIAAAQKZgCDJ6B0mQIAAAQIECBAgQECQ2AABAgQIECBAgAABApmAIMnoHSZAgAABAgQIECBAQJDYAAECBAgQIECAAAECmYAgyegdJkCAAAECBAgQIEBAkNgAAQIECBAgQIAAAQKZgCDJ6B0mQIAAAQIECBAgQECQ2AABAgQIECBAgAABApmAIMnoHSZAgAABAgQIECBAQJDYAAECBAgQIECAAAECmYAgyegdJkCAAAECBAgQIEBAkNgAAQIECBAgQIAAAQKZgCDJ6B0mQIAAAQIECBAgQECQ2AABAgQIECBAgAABApmAIMnoHSZAgAABAgQIECBAQJDYAAECBAgQIECAAAECmYAgyegdJkCAAAECBAgQIEBAkNgAAQIECBAgQIAAAQKZgCDJ6B0mQIAAAQIECBAgQECQ2AABAgQIECBAgAABApmAIMnoHSZAgAABAgQIECBAQJDYAAECBAgQIECAAAECmYAgyegdJkCAAAECBAgQIEBAkNgAAQIECBAgQIAAAQKZgCDJ6B0mQIAAAQIECBAgQECQ2AABAgQIECBAgAABApmAIMnoHSZAgAABAgQIECBAQJDYAAECBAgQIECAAAECmYAgyegdJkCAAAECBAgQIEBAkNgAAQIECBAgQIAAAQKZgCDJ6B0mQIAAAQIECBAgQECQ2AABAgQIECBAgAABApmAIMnoHSZAgAABAgQIECBAQJDYAAECBAgQIECAAAECmYAgyegdJkCAAAECBAgQIEBAkNgAAQIECBAgQIAAAQKZgCDJ6B0mQIAAAQIECBAgQECQ2AABAgQIECBAgAABApmAIMnoHSZAgAABAgQIECBAQJDYAAECBAgQIECAAAECmYAgyegdJkCAAAECBAgQIEBAkNgAAQIECBAgQIAAAQKZgCDJ6B0mQIAAAQIECBAgQECQ2AABAgQIECBAgAABApmAIMnoHSZAgAABAgQIECBAQJDYAAECBAgQIECAAAECmYAgyegdJkCAAAECBAgQIEBAkNgAAQIECBAgQIAAAQKZgCDJ6B0mQIAAAQIECBAgQECQ2AABAgQIECBAgAABApmAIMnoHSZAgAABAgQIECBAQJDYAAECBAgQIECAAAECmYAgyegdJkCAAAECBAgQIEBAkNgAAQIECBAgQIAAAQKZgCDJ6B0mQIAAAQIECBAgQECQ2AABAgQIECBAgAABApmAIMnoHSZAgAABAgQIECBAQJDYAAECBAgQIECAAAECmYAgyegdJkCAAAECBAgQIEBAkNgAAQIECBAgQIAAAQKZgCDJ6B0mQIAAAQIECBAgQECQ2AABAgQIECBAgAABApmAIMnoHSZAgAABAgQIECBAQJDYAAECBAgQIECAAAECmYAgyegdJkCAAAECBAgQIEBAkNgAAQIECBAgQIAAAQKZgCDJ6B0mQIAAAQIECBAgQECQ2AABAgQIECBAgAABApmAIMnoHSZAgAABAgQIECBAQJDYAAECBAgQIECAAAECmYAgyegdJkCAAAECBAgQIEBAkNgAAQIECBAgQIAAAQKZgCDJ6B0mQIAAAQIECBAgQECQ2AABAgQIECBAgAABApmAIMnoHSZAgAABAgQIECBAQJDYAAECBAgQIECAAAECmYAgyegdJkCAAAECBAgQIEBAkNgAAQIECBAgQIAAAQKZgCDJ6B0mQIAAAQIECBAgQECQ2AABAgQIECBAgAABApmAIMnoHSZAgAABAgQIECBAQJDYAAECBAgQIECAAAECmYAgyegdJkCAAAECBAgQIEBAkNgAAQIECBAgQIAAAQKZgCDJ6B0mQIAAAQIECBAgQECQ2AABAgQIECBAgAABApmAIMnoHSZAgAABAgQIECBAQJDYAAECBAgQIECAAAECmYAgyegdJkCAAAECBAgQIEBAkNgAAQIECBAgQIAAAQKZgCDJ6B0mQIAAAQIECBAgQECQ2AABAgQIECBAgAABApmAIMnoHSZAgAABAgQIECBAQJDYAAECBAgQIECAAAECmYAgyegdJkCAAAECBAgQIEBAkNgAAQIECBAgQIAAAQKZgCDJ6B0mQIAAAQIECBAgQECQ2AABAgQIECBAgAABApmAIMnoHSZAgAABAgQIECBAQJDYAAECBAgQIECAAAECmYAgyegdJkCAAAECBAgQIEBAkNgAAQIECBAgQIAAAQKZgCDJ6B0mQIAAAQIECBAgQECQ2AABAgQIECBAgAABApmAIMnoHSZAgAABAgQIECBAQJDYAAECBAgQIECAAAECmYAgyegdJkCAAAECBAgQIEBAkNgAAQIECBAgQIAAAQKZgCDJ6B0mQIAAAQIECBAgQECQ2AABAgQIECBAgAABApmAIMnoHSZAgAABAgQIECBAQJDYAAECBAgQIECAAAECmYAgyegdJkCAAAECBAgQIEBAkNgAAQIECBAgQIAAAQKZgCDJ6B0mQIAAAQIECBAgQECQ2AABAgQIECBAgAABApmAIMnoHSZAgAABAgQIECBAQJDYAAECBAgQIECAAAECmYAgyegdJkCAAAECBAgQIEBAkNgAAQIECBAgQIAAAQKZgCDJ6B0mQIAAAQIECBAgQECQ2AABAgQIECBAgAABApmAIMnoHSZAgAABAgQIECBAQJDYAAECBAgQIECAAAECmYAgyegdJkCAAAECBAgQIEBAkNgAAQIECBAgQIAAAQKZgCDJ6B0mQIAAAQIECBAgQECQ2AABAgQIECBAgAABApmAIMnoHSZAgAABAgQIECBAQJDYAAECBAgQIECAAAECmYAgyegdJkCAAAECBAgQIEBAkNgAAQIECBAgQIAAAQKZgCDJ6B0mQIAAAQIECBAgQECQ2AABAgQIECBAgAABApmAIMnoHSZAgAABAgQIECBAQJDYAAECBAgQIECAAAECmYAgyegdJkCAAAECBAgQIEBAkNgAAQIECBAgQIAAAQKZgCDJ6B0mQIAAAQIECBAgQECQ2AABAgQIECBAgAABApmAIMnoHSZAgAABAgQIECBAQJDYAAECBAgQIECAAAECmYAgyegdJkCAAAECBAgQIEBAkNgAAQIECBAgQIAAAQKZgCDJ6B0mQIAAAQIECBAgQECQ2AABAgQIECBAgAABApmAIMnoHSZAgAABAgQIECBAQJDYAAECBAgQIECAAAECmYAgyegdJkCAAAECBAgQIEBAkNgAAQIECBAgQIAAAQKZgCDJ6B0mQIAAAQIECBAgQECQ2AABAgQIECBAgAABApmAIMnoHSZAgAABAgQIECBAQJDYAAECBAgQIECAAAECmYAgyegdJkCAAAECBAgQIEBAkNgAAQIECBAgQIAAAQKZgCDJ6B0mQIAAAQIECBAgQECQ2AABAgQIECBAgAABApmAIMnoHSZAgAABAgQIECBAQJDYAAECBAgQIECAAAECmYAgyegdJkCAAAECBAgQIEBAkNgAAQIECBAgQIAAAQKZgCDJ6B0mQIAAAQIECBAgQECQ2AABAgQIECBAgAABApmAIMnoHSZAgAABAgQIECBAQJDYAAECBAgQIECAAAECmYAgyegdJkCAAAECBAgQIEBAkNgAAQIECBAgQIAAAQKZgCDJ6B0mQIAAAQIECBAgQECQ2AABAgQIECBAgAABApmAIMnoHSZAgAABAgQIECBAQJDYAAECBAgQIECAAAECmYAgyegdJkCAAAECBAgQIEBAkNgAAQIECBAgQIAAAQKZgCDJ6B0mQIAAAQIECBAgQECQ2AABAgQIECBAgAABApmAIMnoHSZAgAABAgQIECBAQJDYAAECBAgQIECAAAECmYAgyegdJkCAAAECBAgQIEBAkNgAAQIECBAgQIAAAQKZgCDJ6B0mQIAAAQIECBAgQECQ2AABAgQIECBAgAABApmAIMnoHSZAgAABAgQIECBAQJDYAAECBAgQIECAAAECmYAgyegdJkCAAAECBAgQIEBAkNgAAQIECBAgQIAAAQKZgCDJ6B0mQIAAAQIECBAgQECQ2AABAgQIECBAgAABApmAIMnoHSZAgAABAgQIECBAQJDYAAECBAgQIECAAAECmYAgyegdJkCAAAECBAgQIEBAkNgAAQIECBAgQIAAAQKZgCDJ6B0mQIAAAQIECBAgQECQ2AABAgQIECBAgAABApmAIMnoHSZAgAABAgQIECBAQJDYAAECBAgQIECAAAECmYAgyegdJkCAAAECBAgQIEBAkNgAAQIECBAgQIAAAQKZgCDJ6B0mQIAAAQIECBAgQECQ2AABAgQIECBAgAABApmAIMnoHSZAgAABAgQIECBAQJDYAAECBAgQIECAAAECmYAgyegdJkCAAAECBAgQIEBAkNgAAQIECBAgQIAAAQKZgCDJ6B0mQIAAAQIECBAgQECQ2AABAgQIECBAgAABApmAIMnoHSZAgAABAgQIECBAQJDYAAECBAgQIECAAAECmYAgyegdJkCAAAECBAgQIEBAkNgAAQIECBAgQIAAAQKZgCDJ6B0mQIAAAQIECBAgQECQ2AABAgQIECBAgAABApmAIMnoHSZAgAABAgQIECBAQJDYAAECBAgQIECAAAECmYAgyegdJkCAAAECBAgQIEBAkNgAAQIECBAgQIAAAQKZgCDJ6B0mQIAAAQIECBAgQECQ2AABAgQIECBAgAABApmAIMnoHSZAgAABAgQIECBAQJDYAAECBAgQIECAAAECmYAgyegdJkCAAAECBAgQIEBAkNgAAQIECBAgQIAAAQKZgCDJ6B0mQIAAAQIECBAgQECQ2AABAgQIECBAgAABApmAIMnoHSZAgAABAgQIECBAQJDYAAECBAgQIECAAAECmYAgyegdJkCAAAECBAgQIEBAkNgAAQIECBAgQIAAAQKZgCDJ6B0mQIAAAQIECBAgQECQ2AABAgQIECBAgAABApmAIMnoHSZAgAABAgQIECBAQJDYAAECBAgQIECAAAECmYAgyegdJkCAAAECBAgQIEBAkNgAAQIECBAgQIAAAQKZgCDJ6B0mQIAAAQIECBAgQECQ2AABAgQIECBAgAABApmAIMnoHSZAgAABAgQIECBAQJDYAAECBAgQIECAAAECmYAgyegdJkCAAAECBAgQIEBAkNgAAQIECBAgQIAAAQKZgCDJ6B0mQIAAAQIECBAgQECQ2AABAgQIECBAgAABApmAIMnoHSZAgAABAgQIECBAQJDYAAECBAgQIECAAAECmYAgyegdJkCAAAECBAgQIEBAkNgAAQIECBAgQIAAAQKZgCDJ6B0mQIAAAQIECBAgQECQ2AABAgQIECBAgAABApmAIMnoHSZAgAABAgQIECBAQJDYAAECBAgQIECAAAECmYAgyegdJkCAAAECBAgQIEBAkNgAAQIECBAgQIAAAQKZgCDJ6B0mQIAAAQIECBAgQECQ2AABAgQIECBAgAABApmAIMnoHSZAgAABAgQIECBAQJDYAAECBAgQIECAAAECmYAgyegdJkCAAAECBAgQIEBAkNgAAQIECBAgQIAAAQKZgCDJ6B0mQIAAAQIECBAgQECQ2AABAgQIECBAgAABApmAIMnoHSZAgAABAgQIECBAQJDYAAECBAgQIECAAAECmYAgyegdJkCAAAECBAgQIEBAkNgAAQIECBAgQIAAAQKZgCDJ6B0mQIAAAQIECBAgQECQ2AABAgQIECBAgAABApmAIMnoHSZAgAABAgQIECBAQJDYAAECBAgQIECAAAECmYAgyegdJkCAAAECBAgQIEBAkNgAAQIECBAgQIAAAQKZgCDJ6B0mQIAAAQIECBAgQECQ2AABAgQIECBAgAABApmAIMnoHSZAgAABAgQIECBAQJDYAAECBAgQIECAAAECmYAgyegdJkCAAAECBAgQIEBAkNgAAQIECBAgQIAAAQKZgCDJ6B0mQIAAAQIECBAgQECQ2AABAgQIECBAgAABApmAIMnoHSZAgAABAgQIECBAQJDYAAECBAgQIECAAAECmYAgyegdJkCAAAECBAgQIEBAkNgAAQIECBAgQIAAAQKZgCDJ6B0mQIAAAQIECBAgQECQ2AABAgQIECBAgAABApmAIMnoHSZAgAABAgQIECBAQJDYAAECBAgQIECAAAECmYAgyegdJkCAAAECBAgQIEBAkNgAAQIECBAgQIAAAQKZgCDJ6B0mQIAAAQIECBAgQECQ2AABAgQIECBAgAABApmAIMnoHSZAgAABAgQIECBAQJDYAAECBAgQIECAAAECmYAgyegdJkCAAAECBAgQIEBAkNgAAQIECBAgQIAAAQKZgCDJ6B0mQIAAAQIECBAgQECQ2AABAgQIECBAgAABApmAIMnoHSZAgAABAgQIECBAQJDYAAECBAgQIECAAAECmYAgyegdJkCAAAECBAgQIEBAkNgAAQIECBAgQIAAAQKZgCDJ6B0mQIAAAQIECBAgQECQ2AABAgQIECBAgAABApmAIMnoHSZAgAABAgQIECBAQJDYAAECBAgQIECAAAECmYAgyegdJkCAAAECBAgQIEBAkNgAAQIECBAgQIAAAQKZgCDJ6B0mQIAAAQIECBAgQECQ2AABAgQIECBAgAABApmAIMnoHSZAgAABAgQIECBAQJDYAAECBAgQIECAAAECmYAgyegdJkCAAAECBAgQIEBAkNgAAQIECBAgQIAAAQKZgCDJ6B0mQIAAAQIECBAgQECQ2AABAgQIECBAgAABApmAIMnoHSZAgAABAgQIECBAQJDYAAECBAgQIECAAAECmYAgyegdJkCAAAECBAgQIEBAkNgAAQIECBAgQIAAAQKZgCDJ6B0mQIAAAQIECBAgQECQ2AABAgQIECBAgAABApmAIMnoHSZAgAABAgQIECBAQJDYAAECBAgQIECAAAECmYAgyegdJkCAAAECBAgQIEBAkNgAAQIECBAgQIAAAQKZgCDJ6B0mQIAAAQIECBAgQECQ2AABAgQIECBAgAABApmAIMnoHSZAgAABAgQIECBAQJDYAAECBAgQIECAAAECmYAgyegdJkCAAAECBAgQIEBAkNgAAQIECBAgQIAAAQKZgCDJ6B0mQIAAAQIECBAgQECQ2AABAgQIECBAgAABApmAIMnoHSZAgAABAgQIECBAQJDYAAECBAgQIECAAAECmYAgyegdJkCAAAECBAgQIEBAkNgAAQIECBAgQIAAAQKZgCDJ6B0mQIAAAQIECBAgQECQ2AABAgQIECBAgAABApmAIMnoHSZAgAABAgQIECBAQJDYAAECBAgQIECAAAECmYAgyegdJkCAAAECBAgQIEBAkNgAAQIECBAgQIAAAQKZgCDJ6B0mQIAAAQIECBAgQECQ2AABAgQIECBAgAABApmAIMnoHSZAgAABAgQIECBAQJDYAAECBAgQIECAAAECmYAgyegdJkCAAAECBAgQIEBAkNgAAQIECBAgQIAAAQKZgCDJ6B0mQIAAAQIECBAgQECQ2AABAgQIECBAgAABApmAIMnoHSZAgAABAgQIECBAQJDYAAECBAgQIECAAAECmYAgyegdJkCAAAECBAgQIEBAkNgAAQIECBAgQIAAAQKZgCDJ6B0mQIAAAQIECBAgQECQ2AABAgQIECBAgAABApmAIMnoHSZAgAABAgQIECBAQJDYAAECBAgQIECAAAECmYAgyegdJkCAAAECBAgQIEBAkNgAAQIECBAgQIAAAQKZgCDJ6B0mQIAAAQIECBAgQECQ2AABAgQIECBAgAABApmAIMnoHSZAgAABAgQIECBAQJDYAAECBAgQIECAAAECmYAgyegdJkCAAAECBAgQIEBAkNgAAQIECBAgQIAAAQKZgCDJ6B0mQIAAAQIECBAgQECQ2AABAgQIECBAgAABApmAIMnoHSZAgAABAgQIECBAQJDYAAECBAgQIECAAAECmYAgyegdJkCAAAECBAgQIEBAkNgAAQIECBAgQIAAAQKZgCDJ6B0mQIAAAQIECBAgQECQ2AABAgQIECBAgAABApmAIMnoHSZAgAABAgQIECBAQJDYAAECBAgQIECAAAECmYAgyegdJkCAAAECBAgQIEBAkNgAAQIECBAgQIAAAQKZgCDJ6B0mQIAAAQIECBAgQECQ2AABAgQIECBAgAABApmAIMnoHSZAgAABAgQIECBAQJDYAAECBAgQIECAAAECmYAgyegdJkCAAAECBAgQIEBAkNgAAQIECBAgQIAAAQKZgCDJ6B0mQIAAAQIECBAgQECQ2AABAgQIECBAgAABApmAIMnoHSZAgAABAgQIECBAQJDYAAECBAgQIECAAAECmYAgyegdJkCAAAECBAgQIEBAkNgAAQIECBAgQIAAAQKZgCDJ6B0mQIAAAQIECBAgQECQ2AABAgQIECBAgAABApmAIMnoHSZAgAABAgQIECBAQJDYAAECBAgQIECAAAECmYAgyegdJkCAAAECBAgQIEBAkNgAAQIECBAgQIAAAQKZgCDJ6B0mQIAAAU5na4IAAAUYSURBVAIECBAgQECQ2AABAgQIECBAgAABApmAIMnoHSZAgAABAgQIECBAQJDYAAECBAgQIECAAAECmYAgyegdJkCAAAECBAgQIEBAkNgAAQIECBAgQIAAAQKZgCDJ6B0mQIAAAQIECBAgQECQ2AABAgQIECBAgAABApmAIMnoHSZAgAABAgQIECBAQJDYAAECBAgQIECAAAECmYAgyegdJkCAAAECBAgQIEBAkNgAAQIECBAgQIAAAQKZgCDJ6B0mQIAAAQIECBAgQECQ2AABAgQIECBAgAABApmAIMnoHSZAgAABAgQIECBAQJDYAAECBAgQIECAAAECmYAgyegdJkCAAAECBAgQIEBAkNgAAQIECBAgQIAAAQKZgCDJ6B0mQIAAAQIECBAgQECQ2AABAgQIECBAgAABApmAIMnoHSZAgAABAgQIECBAQJDYAAECBAgQIECAAAECmYAgyegdJkCAAAECBAgQIEBAkNgAAQIECBAgQIAAAQKZgCDJ6B0mQIAAAQIECBAgQECQ2AABAgQIECBAgAABApmAIMnoHSZAgAABAgQIECBAQJDYAAECBAgQIECAAAECmYAgyegdJkCAAAECBAgQIEBAkNgAAQIECBAgQIAAAQKZgCDJ6B0mQIAAAQIECBAgQECQ2AABAgQIECBAgAABApmAIMnoHSZAgAABAgQIECBAQJDYAAECBAgQIECAAAECmYAgyegdJkCAAAECBAgQIEBAkNgAAQIECBAgQIAAAQKZgCDJ6B0mQIAAAQIECBAgQECQ2AABAgQIECBAgAABApmAIMnoHSZAgAABAgQIECBAQJDYAAECBAgQIECAAAECmYAgyegdJkCAAAECBAgQIEBAkNgAAQIECBAgQIAAAQKZgCDJ6B0mQIAAAQIECBAgQECQ2AABAgQIECBAgAABApmAIMnoHSZAgAABAgQIECBAQJDYAAECBAgQIECAAAECmYAgyegdJkCAAAECBAgQIEBAkNgAAQIECBAgQIAAAQKZgCDJ6B0mQIAAAQIECBAgQECQ2AABAgQIECBAgAABApmAIMnoHSZAgAABAgQIECBAQJDYAAECBAgQIECAAAECmYAgyegdJkCAAAECBAgQIEBAkNgAAQIECBAgQIAAAQKZgCDJ6B0mQIAAAQIECBAgQECQ2AABAgQIECBAgAABApmAIMnoHSZAgAABAgQIECBAQJDYAAECBAgQIECAAAECmYAgyegdJkCAAAECBAgQIEBAkNgAAQIECBAgQIAAAQKZgCDJ6B0mQIAAAQIECBAgQECQ2AABAgQIECBAgAABApmAIMnoHSZAgAABAgQIECBAQJDYAAECBAgQIECAAAECmYAgyegdJkCAAAECBAgQIEBAkNgAAQIECBAgQIAAAQKZgCDJ6B0mQIAAAQIECBAgQECQ2AABAgQIECBAgAABApmAIMnoHSZAgAABAgQIECBAQJDYAAECBAgQIECAAAECmYAgyegdJkCAAAECBAgQIEBAkNgAAQIECBAgQIAAAQKZgCDJ6B0mQIAAAQIECBAgQECQ2AABAgQIECBAgAABApmAIMnoHSZAgAABAgQIECBAQJDYAAECBAgQIECAAAECmYAgyegdJkCAAAECBAgQIEBAkNgAAQIECBAgQIAAAQKZgCDJ6B0mQIAAAQIECBAgQECQ2AABAgQIECBAgAABApnAEyTvz3nNj8fABmzABmzABmzABmzABmxg5QamRW5jM7Dk5trYwAAAAABJRU5ErkJggg==;" parent="1" vertex="1">
          <mxGeometry x="40" y="330" width="1051.06" height="770" as="geometry" />
        </mxCell>
        <mxCell id="vwxL3VdeQS7a6y01JX-I-3" value="" style="shape=image;verticalLabelPosition=bottom;labelBackgroundColor=#ffffff;verticalAlign=top;aspect=fixed;imageAspect=0;image=data:image/png,iVBORw0KGgoAAAANSUhEUgAAACMAAAAjCAYAAAAe2bNZAAACpElEQVRYCe2VvUtdQRDF/V/sbMRGLIIWihCxEAQLMUW0EQu1kFiEVwgPAkqKh4WkSGy0kRSKoCAhELEwWIhFRIgEgoRAxCJJ86wm/BbOZbx312+ixR3Yt3dnZ2fPnvl4DRPTMzY4MvHgw8ysoePpgDU2tz/4KMGkolAyUzKTYiClL3Pmxsy8qLyy42/fYS7I4dFX6382Ghrjp53PNld7kzXJwZFx293bt+djU5mOfey4mP2THz/lKuhbnvRktgKHQbQDv1tasUr1dXBUnZ0PwH6dnllTa1e4GOdygi3yfm0j07EPGLp7vX4e9gDFqC0s2o3A6CLNOEBwDkh9sw9rMCOA2CCwC5sI/3/ylZqxizLDAZwBgrHwdik45SJ/GS9EeDHCmnNIW2dfALB/8CWs1zc/XAoKoygYOWAmDMofgIgNwjI6+TJjBGZYo4cpzwChhkEEnwLqbaJg9EocyFivFRjY4nIYU67wcoCj9wkuH8wkOUKovZ7vKBhehyjOUM9LEYByULkAYwBFp0THTqA561noHRgOfvxDBYqNQpioGIUFEL///A0vpSpgQoepLn+xLiIcstHDCI0PPXfIRnMUDJsYwwxDr+zuG7rggLV6jxzCnOylYw0oQpu3lw1zEow3+l/fBTDEN0bhfQCCna2P2yH/CL9yUr4LYKCUzkmC3ScohYowUlHklf4ukmDYAMTyyqqRoJQqiakDt51hnKqDGXKNNuCLAb8FZvxl0KpGRe8AGLp8gvoz/hsWYFhVRIXqzxR/vuSvBCPHHlSAbxbKnbjnh8DLjhkw6kX4BNC1+4xA5GfCRWfVS/2F/pt+BEhKOd8O8EkjzPtmjRSaXswwpiO3CIUfqYti5/O6O4HJO7vrugSTYrBkpmQmxUBKH3KGn8ci/wAjmJQbfqVxxQAAAABJRU5ErkJggg==;" parent="1" vertex="1">
          <mxGeometry x="40" y="330" width="35" height="35" as="geometry" />
        </mxCell>
        <mxCell id="vwxL3VdeQS7a6y01JX-I-5" value="AWS Cloud" style="text;html=1;strokeColor=none;fillColor=none;align=center;verticalAlign=middle;whiteSpace=wrap;rounded=0;" parent="1" vertex="1">
          <mxGeometry x="75" y="337.5" width="70" height="20" as="geometry" />
        </mxCell>
        <mxCell id="vwxL3VdeQS7a6y01JX-I-6" value="" style="shape=image;verticalLabelPosition=bottom;labelBackgroundColor=#ffffff;verticalAlign=top;aspect=fixed;imageAspect=0;image=data:image/png,iVBORw0KGgoAAAANSUhEUgAAAxQAAAHACAYAAAA7sy6BAAAgAElEQVR4Ae3dv6sleH3G8f0PDMFOYpFYuY3abZVUIY3Y2QgWgkXAwiKkCalMsZqASyxcCLidgqAgYpGgYECIICSgsIVgoZhiJcUGUtjd8L1wH66TMzv37UY8B14D435m9nE8vs4p5s25P1768Gvvv/vjV9/ze//5R59/6c5PBl4DXgNeA14DXgNeA14DXgNeA7fzGviLNz5099IHXv3Duw+8+t7f+887PwgQIECAAAECBAgQuCmBE3+C4qaeMg+WAAECBAgQIECAwPUICIrreS48EgIECBAgQIAAAQI3JyAobu4p84AJECBAgAABAgQIXI+AoLie58IjIUCAAAECBAgQIHBzAoLi5p4yD5gAAQIECBAgQIDA9QgIiut5LjwSAgQIECBAgAABAjcnIChu7inzgAkQIECAAAECBAhcj0AOir///ufu3nzrJ/f/D372Xz+9/+d//OeP7j77rU+/6+9jcT0sHgkBAgQIECBAgAABAk8ReHJQfOSLf3J3wuHExCe++rHFw8v/8L67v/zGJ+9OXHz7zW/enV//tt8k7ykP2IYAAQIECBAgQIAAgesReFJQnEj44c9/cPevP/ve3QmLS8FwNt/48dfuf17690/5veth8UgIECBAgAABAgQIEHiKwJOC4rwDcWLiRVFwouJX//PW/TsW512Mf/zBF9KHQj3lAdsQIECAAAECBAgQIHA9Ak8KivOhTh/9yp+9MChOcJz4OD/Oh0CdoDjvbJx3Lp7yoVDXw+KRECBAgAABAgQIECDwFIEXBsXDuw7v9O7En//TK78RGycqHgLi/PNffvqdu099/eO/sbn05z3lAdsQIECAAAECBAgQIHA9Ai8MivPOxHmX4VIAnFg4n6R93sE470i88qUPXtydwDifsH3pz3j8e9fD4pEQIECAAAECBAgQIPAUgXcMir/957+6/5yI86FLj//i/3Cff38+nOn8+nw52df/7bWLuxMeJ0rO51c87886f4YfBAgQIECAAAECBAjclsBzg+Lh+0386Zc/fDES/vo7n7n75du/uP95YuG8Q3GC4fz3HoLj2X+eP+u8m/HVf3/j4ua26DxaAgQIECBAgAABAgQuBsX50KX//vXbz/0QphMKJyL+7rt/c/89Kc5XdDo/zze3O5HxbEg8/vXDh0ld+iRvTwcBAgQIECBAgAABArclcDEoTig8fCjT4xh4fJ+gePwN7s6/O+9AvCgozu58qNQbP3r9/4THbdF5tAQIECBAgAABAgQIXAyK85f9ExWPA+LZ+90ExQmRS9/XwtNBgAABAgQIECBAgMBtCVwMisefbP1sSDz8+ryDcenHCY2HzfP+eT406tI7IJf+PL9HgAABAgQIECBAgMD1ClwMivOhS+cTrJ/3ZWCfFwpP/f3z7sT5pO5n99fL5JERIECAAAECBAgQIHBJ4GJQnL/on6/WdL4i0/93VJwvG3uC4nxytqC49JT4PQIECBAgQIAAAQK3I/DcoHiIivNOxfkyrycE3s3P8z0qzpeWPd/g7lJMnP89PwgQIECAAAECBAgQuC2BdwyK85f88+FP53Me3k1MnP/uecfj/FnPvivx+Ne3RefREiBAgAABAgQIECDwwqB4/Bf+3/Xt6SBAgAABAgQIECBA4LYEBMVtPV8eLQECBAgQIECAAIGrEhAUV/V0eDAECBAgQIAAAQIEbktAUNzW8+XREiBAgAABAgQIELgqAUFxVU+HB0OAAAECBAgQIEDgtgQExW09Xx4tAQIECBAgQIAAgasSEBRX9XR4MAQIECBAgAABAgRuS0BQ3Nbz5dESIECAAAECBAgQuCqB+6A4/+EHAQIECBAgQIAAAQIEqoCgqGL2BAgQIECAAAECBAhMQFCMwkGAAAECBAgQIECAQBUQFFXMngABAgQIECBAgACBCQiKUTgIECBAgAABAgQIEKgCgqKK2RMgQIAAAQIECBAgMAFBMQoHAQIECBAgQIAAAQJVQFBUMXsCBAgQIECAAAECBCYgKEbhIECAAAECBAgQIECgCgiKKmZPgAABAgQIECBAgMAEBMUoHAQIECBAgAABAgQIVAFBUcXsCRAgQIAAAQIECBCYgKAYhYMAAQIECBAgQIAAgSogKKqYPQECBAgQIECAAAECExAUo3AQIECAAAECBAgQIFAFBEUVsydAgAABAgQIECBAYAKCYhQOAgQIECBAgAABAgSqgKCoYvYECBAgQIAAAQIECExAUIzCQYAAAQIECBAgQIBAFRAUVcyeAAECBAgQIECAAIEJCIpROAgQIECAAAECBAgQqAKCoorZEyBAgAABAgQIECAwAUExCgcBAgQIECBAgAABAlVAUFQxewIECBAgQIAAAQIEJiAoRuEgQIAAAQIECBAgQKAKCIoqZk+AAAECBAgQIECAwAQExSgcBAgQIECAAAECBAhUAUFRxewJECBAgAABAgQIEJiAoBiFgwABAgQIECBAgACBKiAoqpg9AQIECBAgQIAAAQITEBSjcBAgQIAAAQIECBAgUAUERRWzJ0CAAAECBAgQIEBgAoJiFA4CBAgQIECAAAECBKqAoKhi9gQIECBAgAABAgQITEBQjMJBgAABAgQIECBAgEAVEBRVzJ4AAQIECBAgQIAAgQkIilE4CBAgQIAAAQIECBCoAoKiitkTIECAAAECBAgQIDABQTEKBwECBAgQIECAAAECVUBQVDF7AgQIECBAgAABAgQmIChG4SBAgAABAgQIECBAoAoIiipmT4AAAQIECBAgQIDABATFKBwECBAgQIAAAQIECFQBQVHF7AkQIECAAAECBAgQmICgGIWDAAECBAgQIECAAIEqICiqmD0BAgQIECBAgAABAhMQFKNwECBAgAABAgQIECBQBQRFFbMnQIAAAQIECBAgQGACgmIUDgIECBAgQIAAAQIEqoCgqGL2BAgQIECAAAECBAhMQFCMwkGAAAECBAgQIECAQBUQFFXMngABAgQIECBAgACBCQiKUTgIECBAgAABAgQIEKgCgqKK2RMgQIAAAQIECBAgMAFBMQoHAQIECBAgQIAAAQJVQFBUMXsCBAgQIECAAAECBCYgKEbhIECAAAECBAgQIECgCgiKKmZPgAABAgQIECBAgMAEBMUoHAQIECBAgAABAgQIVAFBUcXsCRAgQIAAAQIECBCYgKAYhYMAAQIECBAgQIAAgSogKKqYPQECBAgQIECAAAECExAUo3AQIECAAAECBAgQIFAFBEUVsydAgAABAgQIECBAYAKCYhQOAgQIECBAgAABAgSqgKCoYvYECBAgQIAAAQIECExAUIzCQYAAAQIECBAgQIBAFRAUVcyeAAECBAgQIECAAIEJCIpROAgQIECAAAECBAgQqAKCoorZEyBAgAABAgQIECAwAUExCgcBAgQIECBAgAABAlVAUFQxewIECBAgQIAAAQIEJiAoRuEgQIAAAQIECBAgQKAKCIoqZk+AAAECBAgQIECAwAQExSgcBAgQIECAAAECBAhUAUFRxewJECBAgAABAgQIEJiAoBiFgwABAgQIECBAgACBKiAoqpg9AQIECBAgQIAAAQITEBSjcBAgQIAAAQIECBAgUAUERRWzJ0CAAAECBAgQIEBgAoJiFA4CBAgQIECAAAECBKqAoKhi9gQIECBAgAABAgQITEBQjMJBgAABAgQIECBAgEAVEBRVzJ4AAQIECBAgQIAAgQkIilE4CBAgQIAAAQIECBCoAoKiitkTIECAAAECBAgQIDABQTEKBwECBAgQIECAAAECVUBQVDF7AgQIECBAgAABAgQmIChG4SBAgAABAgQIECBAoAoIiipmT4AAAQIECBAgQIDABATFKBwECBAgQIAAAQIECFQBQVHF7AkQIECAAAECBAgQmICgGIWDAAECBAgQIECAAIEqICiqmD0BAgQIECBAgAABAhMQFKNwECBAgAABAgQIECBQBQRFFbMnQIAAAQIECBAgQGACgmIUDgIECBAgQIAAAQIEqoCgqGL2BAgQIECAAAECBAhMQFCMwkGAAAECBAgQIECAQBUQFFXMngABAgQIECBAgACBCQiKUTgIECBAgAABAgQIEKgCgqKK2RMgQIAAAQIECBAgMAFBMQoHAQIECBAgQIAAAQJVQFBUMXsCBAgQIECAAAECBCYgKEbhIECAAAECBAgQIECgCgiKKmZPgAABAgQIECBAgMAEBMUoHAQIECBAgAABAgQIVAFBUcXsCRAgQIAAAQIECBCYgKAYhYMAAQIECBAgQIAAgSogKKqYPQECBAgQIECAAAECExAUo3AQIECAAAECBAgQIFAFBEUVsydAgAABAgQIECBAYAKCYhQOAgQIECBAgAABAgSqgKCoYvYECBAgQIAAAQIECExAUIzCQYAAAQIECBAgQIBAFRAUVcyeAAECBAgQIECAAIEJCIpROAgQIECAAAECBAgQqAKCoorZEyBAgAABAgQIECAwAUExCgcBAgQIECBAgAABAlVAUFQxewIECBAgQIAAAQIEJiAoRuEgQIAAAQIECBAgQKAKCIoqZk+AAAECBAgQIECAwAQExSgcBAgQIECAAAECBAhUAUFRxewJECBAgAABAgQIEJiAoBiFgwABAgQIECBAgACBKiAoqpg9AQIECBAgQIAAAQITEBSjcBAgQIAAAQIECBAgUAUERRWzJ0CAAAECBAgQIEBgAoJiFA4CBAgQIECAAAECBKqAoKhi9gQIECBAgAABAgQITEBQjMJBgAABAgQIECBAgEAVEBRVzJ4AAQIECBAgQIAAgQkIilE4CBAgQIAAAQIECBCoAoKiitkTIECAAAECBAgQIDABQTEKBwECBAgQIECAAAECVUBQVDF7AgQIECBAgAABAgQmIChG4SBAgAABAgQIECBAoAoIiipmT4AAAQIECBAgQIDABATFKBwECBAgQIAAAQIECFQBQVHF7AkQIECAAAECBAgQmICgGIWDAAECBAgQIECAAIEqICiqmD0BAgQIECBAgAABAhMQFKNwECBAgAABAgQIECBQBQRFFbMnQIAAAQIECBAgQGACgmIUDgIECBAgQIAAAQIEqoCgqGL2BAgQIECAAAECBAhMQFCMwkGAAAECBAgQIECAQBUQFFXMngABAgQIECBAgACBCQiKUTgIECBAgAABAgQIEKgCgqKK2RMgQIAAAQIECBAgMAFBMQoHAQIECBAgQIAAAQJVQFBUMXsCBAgQIECAAAECBCYgKEbhIECAAAECBAgQIECgCgiKKmZPgAABAgQIECBAgMAEBMUoHAQIECBAgAABAgQIVAFBUcXsCRAgQIAAAQIECBCYgKAYhYMAAQIECBAgQIAAgSogKKqYPQECBAgQIECAAAECExAUo3AQIECAAAECBAgQIFAFBEUVsydAgAABAgQIECBAYAKCYhQOAgQIECBAgAABAgSqgKCoYvYECBAgQIAAAQIECExAUIzCQYAAAQIECBAgQIBAFRAUVcyeAAECBAgQIECAAIEJCIpROAgQIECAAAECBAgQqAKCoorZEyBAgAABAgQIECAwAUExCgcBAgQIECBAgAABAlVAUFQxewIECBAgQIAAAQIEJiAoRuEgQIAAAQIECBAgQKAKCIoqZk+AAAECBAgQIECAwAQExSgcBAgQIECAAAECBAhUAUFRxewJECBAgAABAgQIEJiAoBiFgwABAgQIECBAgACBKiAoqpg9AQIECBAgQIAAAQITEBSjcBAgQIAAAQIECBAgUAUERRWzJ0CAAAECBAgQIEBgAoJiFA4CBAgQIECAAAECBKqAoKhi9gQIECBAgAABAgQITEBQjMJBgAABAgQIECBAgEAVEBRVzJ4AAQIECBAgQIAAgQkIilE4CBAgQIAAAQIECBCoAoKiitkTIECAAAECBAgQIDABQTEKBwECBAgQIECAAAECVUBQVDF7AgQIECBAgAABAgQmIChG4SBAgAABAgQIECBAoAoIiipmT4AAAQIECBAgQIDABATFKBwECBAgQIAAAQIECFQBQVHF7AkQIECAAAECBAgQmICgGIWDAAECBAgQIECAAIEqICiqmD0BAgQIECBAgAABAhMQFKNwECBAgAABAgQIECBQBQRFFbMnQIAAAQIECBAgQGACgmIUDgIECBAgQIAAAQIEqoCgqGL2BAgQIECAAAECBAhMQFCMwkGAAAECBAgQIECAQBUQFFXMngABAgQIECBAgACBCQiKUTgIECBAgAABAgQIEKgCgqKK2RMgQIAAAQIECBAgMAFBMQoHAQIECBAgQIAAAQJVQFBUMXsCBAgQIECAAAECBCYgKEbhIECAAAECBAgQIECgCgiKKmZPgAABAgQIECBAgMAEBMUoHAQIECBAgAABAgQIVAFBUcXsCRAgQIAAAQIECBCYgKAYhYMAAQIECBAgQIAAgSogKKqYPQECBAgQIECAAAECExAUo3AQIECAAAECBAgQIFAFBEUVsydAgAABAgQIECBAYAKCYhQOAgQIECBAgAABAgSqgKCoYvYECBAgQIAAAQIECExAUIzCQYAAAQIECBAgQIBAFRAUVcyeAAECBAgQIECAAIEJCIpROAgQIECAAAECBAgQqAKCoorZEyBAgAABAgQIECAwAUExCgcBAgQIECBAgAABAlVAUFQxewIECBAgQIAAAQIEJiAoRuEgQIAAAQIECBAgQKAKCIoqZk+AAAECBAgQIECAwAQExSgcBAgQIECAAAECBAhUAUFRxewJECBAgAABAgQIEJiAoBiFgwABAgQIECBAgACBKiAoqpg9AQIECBAgQIAAAQITEBSjcBAgQIAAAQIECBAgUAUERRWzJ0CAAAECBAgQIEBgAoJiFA4CBAgQIECAAAECBKqAoKhi9gQIECBAgAABAgQITEBQjMJBgAABAgQIECBAgEAVEBRVzJ4AAQIECBAgQIAAgQkIilE4CBAgQIAAAQIECBCoAoKiitkTIECAAAECBAgQIDABQTEKBwECBAgQIECAAAECVUBQVDF7AgQIECBAgAABAgQmIChG4SBAgAABAgQIECBAoAoIiipmT4AAAQIECBAgQIDABATFKBwECBAgQIAAAQIECFQBQVHF7AkQIECAAAECBAgQmICgGIWDAAECBAgQIECAAIEqICiqmD0BAgQIECBAgAABAhMQFKNwECBAgAABAgQIECBQBQRFFbMnQIAAAQIECBAgQGACgmIUDgIECBAgQIAAAQIEqoCgqGL2BAgQIECAAAECBAhMQFCMwkGAAAECBAgQIECAQBUQFFXMngABAgQIECBAgACBCQiKUTgIECBAgAABAgQIEKgCgqKK2RMgQIAAAQIECBAgMAFBMQoHAQIECBAgQIAAAQJVQFBUMXsCBAgQIECAAAECBCYgKEbhIECAAAECBAgQIECgCgiKKmZPgAABAgQIECBAgMAEBMUoHAQIECBAgAABAgQIVAFBUcXsCRAgQIAAAQIECBCYgKAYhYMAAQIECBAgQIAAgSogKKqYPQECBAgQIECAAAECExAUo3AQIECAAAECBAgQIFAFBEUVsydAgAABAgQIECBAYAKCYhQOAgQIECBAgAABAgSqgKCoYvYECBAgQIAAAQIECExAUIzCQYAAAQIECBAgQIBAFRAUVcyeAAECBAgQIECAAIEJCIpROAgQIECAAAECBAgQqAKCoorZEyBAgAABAgQIECAwAUExCgcBAgQIECBAgAABAlVAUFQxewIECBAgQIAAAQIEJiAoRuEgQIAAAQIECBAgQKAKCIoqZk+AAAECBAgQIECAwAQExSgcBAgQIECAAAECBAhUAUFRxewJECBAgAABAgQIEJiAoBiFgwABAgQIECBAgACBKiAoqpg9AQIECBAgQIAAAQITEBSjcBAgQIAAAQIECBAgUAUERRWzJ0CAAAECBAgQIEBgAoJiFA4CBAgQIECAAAECBKqAoKhi9gQIECBAgAABAgQITEBQjMJBgAABAgQIECBAgEAVEBRVzJ4AAQIECBAgQIAAgQkIilE4CBAgQIAAAQIECBCoAoKiitkTIECAAAECBAgQIDABQTEKBwECBAgQIECAAAECVUBQVDF7AgQIECBAgAABAgQmIChG4SBAgAABAgQIECBAoAoIiipmT4AAAQIECBAgQIDABATFKBwECBAgQIAAAQIECFQBQVHF7AkQIECAAAECBAgQmICgGIWDAAECBAgQIECAAIEqICiqmD0BAgQIECBAgAABAhMQFKNwECBAgAABAgQIECBQBQRFFbMnQIAAAQIECBAgQGACgmIUDgIECBAgQIAAAQIEqoCgqGL2BAgQIECAAAECBAhMQFCMwkGAAAECBAgQIECAQBUQFFXMngABAgQIECBAgACBCQiKUTgIECBAgAABAgQIEKgCgqKK2RMgQIAAAQIECBAgMAFBMQoHAQIECBAgQIAAAQJVQFBUMXsCBAgQIECAAAECBCYgKEbhIECAAAECBAgQIECgCgiKKmZPgAABAgQIECBAgMAEBMUoHAQIECBAgAABAgQIVAFBUcXsCRAgQIAAAQIECBCYgKAYhYMAAQIECBAgQIAAgSogKKqYPQECBAgQIECAAAECExAUo3AQIECAAAECBAgQIFAFBEUVsydAgAABAgQIECBAYAKCYhQOAgQIECBAgAABAgSqgKCoYvYECBAgQIAAAQIECExAUIzCQYAAAQIECBAgQIBAFRAUVcyeAAECBAgQIECAAIEJCIpROAgQIECAAAECBAgQqAKCoorZEyBAgAABAgQIECAwAUExCgcBAgQIECBAgAABAlVAUFQxewIECBAgQIAAAQIEJiAoRuEgQIAAAQIECBAgQKAKCIoqZk+AAAECBAgQIECAwAQExSgcBAgQIECAAAECBAhUAUFRxewJECBAgAABAgQIEJiAoBiFgwABAgQIECBAgACBKiAoqpg9AQIECBAgQIAAAQITEBSjcBAgQIAAAQIECBAgUAUERRWzJ0CAAAECBAgQIEBgAoJiFA4CBAgQIECAAAECBKqAoKhi9gQIECBAgAABAgQITEBQjMJBgAABAgQIECBAgEAVEBRVzJ4AAQIECBAgQIAAgQkIilE4CBAgQIAAAQIECBCoAoKiitkTIECAAAECBAgQIDABQTEKBwECBAgQIECAAAECVUBQVDF7AgQIECBAgAABAgQmIChG4SBAgAABAgQIECBAoAoIiipmT4AAAQIECBAgQIDABATFKBwECBAgQIAAAQIECFQBQVHF7AkQIECAAAECBAgQmICgGIWDAAECBAgQIECAAIEqICiqmD0BAgQIECBAgAABAhMQFKNwECBAgAABAgQIECBQBQRFFbMnQIAAAQIECBAgQGACgmIUDgIECBAgQIAAAQIEqoCgqGL2BAgQIECAAAECBAhMQFCMwkGAAAECBAgQIECAQBUQFFXMngABAgQIECBAgACBCQiKUTgIECBAgAABAgQIEKgCgqKK2RMgQIAAAQIECBAgMAFBMQoHAQIECBAgQIAAAQJVQFBUMXsCBAgQIECAAAECBCYgKEbhIECAAAECBAgQIECgCgiKKmZPgAABAgQIECBAgMAEBMUoHAQIECBAgAABAgQIVAFBUcXsCRAgQIAAAQIECBCYgKAYhYMAAQIECBAgQIAAgSogKKqYPQECBAgQIECAAAECExAUo3AQIECAAAECBAgQIFAFBEUVsydAgAABAgQIECBAYAKCYhQOAgQIECBAgAABAgSqgKCoYvYECBAgQIAAAQIECExAUIzCQYAAAQIECBAgQIBAFRAUVcyeAAECBAgQIECAAIEJCIpROAgQIECAAAECBAgQqAKCoorZEyBAgAABAgQIECAwAUExCgcBAgQIECBAgAABAlVAUFQxewIECBAgQIAAAQIEJiAoRuEgQIAAAQIECBAgQKAKCIoqZk+AAAECBAgQIECAwAQExSgcBAgQIECAAAECBAhUAUFRxewJECBAgAABAgQIEJiAoBiFgwABAgQIECBAgACBKiAoqpg9AQIECBAgQIAAAQITEBSjcBAgQIAAAQIECBAgUAUERRWzJ0CAAAECBAgQIEBgAoJiFA4CBAgQIECAAAECBKqAoKhi9gQIECBAgAABAgQITEBQjMJBgAABAgQIECBAgEAVEBRVzJ4AAQIECBAgQIAAgQkIilE4CBAgQIAAAQIECBCoAoKiitkTIECAAAECBAgQIDABQTEKBwECBAgQIECAAAECVUBQVDF7AgQIECBAgAABAgQmIChG4SBAgAABAgQIECBAoAoIiipmT4AAAQIECBAgQIDABATFKBwECBAgQIAAAQIECFQBQVHF7AkQIECAAAECBAgQmICgGIWDAAECBAgQIECAAIEqICiqmD0BAgQIECBAgAABAhMQFKNwECBAgAABAgQIECBQBQRFFbMnQIAAAQIECBAgQGACgmIUDgIECBAgQIAAAQIEqoCgqGL2BAgQIECAAAECBAhMQFCMwkGAAAECBAgQIECAQBUQFFXMngABAgQIECBAgACBCQiKUTgIECBAgAABAgQIEKgCgqKK2RMgQIAAAQIECBAgMAFBMQoHAQIECBAgQIAAAQJVQFBUMXsCBAgQIECAAAECBCYgKEbhIECAAAECBAgQIECgCgiKKmZPgAABAgQIECBAgMAEBMUoHAQIECBAgAABAgQIVAFBUcXsCRAgQIAAAQIECBCYgKAYhYMAAQIECBAgQIAAgSogKKqYPQECBAgQIECAAAECExAUo3AQIECAAAECBAgQIFAFBEUVsydAgAABAgQIECBAYAKCYhQOAgQIECBAgAABAgSqgKCoYvYECBAgQIAAAQIECExAUIzCQYAAAQIECBAgQIBAFRAUVcyeAAECBAgQIECAAIEJCIpROAgQIECAAAECBAgQqAKCoorZEyBAgAABAgQIECAwAZrzd7AAAACfSURBVEExCgcBAgQIECBAgAABAlVAUFQxewIECBAgQIAAAQIEJiAoRuEgQIAAAQIECBAgQKAKCIoqZk+AAAECBAgQIECAwAQExSgcBAgQIECAAAECBAhUAUFRxewJECBAgAABAgQIEJiAoBiFgwABAgQIECBAgACBKnAfFC+/9gd35/CTgdeA14DXgNeA14DXgNeA14DXgNdAeQ2clvhfEGRtdowGdHkAAAAASUVORK5CYII=;fontColor=#FFB570;" parent="1" vertex="1">
          <mxGeometry x="75" y="500" width="875" height="497.46" as="geometry" />
        </mxCell>
        <mxCell id="vwxL3VdeQS7a6y01JX-I-7" value="VPC" style="text;html=1;strokeColor=none;fillColor=none;align=center;verticalAlign=middle;whiteSpace=wrap;rounded=0;" parent="1" vertex="1">
          <mxGeometry x="120" y="510" width="40" height="20" as="geometry" />
        </mxCell>
        <mxCell id="vwxL3VdeQS7a6y01JX-I-19" value="" style="rounded=0;whiteSpace=wrap;html=1;fontSize=11;strokeColor=#FFB570;dashed=1;" parent="1" vertex="1">
          <mxGeometry x="119.56" y="590" width="790.44" height="280" as="geometry" />
        </mxCell>
        <mxCell id="vwxL3VdeQS7a6y01JX-I-20" value="" style="shape=image;verticalLabelPosition=bottom;labelBackgroundColor=#ffffff;verticalAlign=top;aspect=fixed;imageAspect=0;image=data:image/png,iVBORw0KGgoAAAANSUhEUgAAACIAAAAjCAYAAADxG9hnAAABdElEQVRYCWN4Njvl/6NevwHF/////89wt9Lw/4004QHFow5BjwGqhMitAiWKo5Vih9xvtv//9+uH/88X5FDkGIocAnLE748v///79YNix1DkkA9Hl/1/PDHs/683D/+DHPXj0eX/N7OlyAoZihwCS3Agh8DY5NKjDkEPudEQGT4hAsqm6L55ubIaQ4zUipTkNPL5/Nb/7w/Ox7AY2XGgUhaUpUkpU7A6BFR3POrxw4phBdibzZ1YHQNyBKikBdG4zLhToomhF6tDQMH/9eYRnBhkEa5S9MuVPSAzceoFmQvyDHIIgthYHYKuCJkPCgmQI3DVuKDoADkGVPwj6yPEJssh6I542OGOYinIMSAHU5xGCLkeXX60rhkNEfQQQOePphFYiLxYUgwuT2DFObY6B6aWEE1yOYJsIKxwAzWgySnEkM2iyCEgg0COAQGQQ5ANJpVNsUNAFj6dnUJSKYrNkVRxCDaDSRUbdQh6iA2uEAG5ZjAAAOrKoqNaiT50AAAAAElFTkSuQmCC;" parent="1" vertex="1">
          <mxGeometry x="119.56" y="590" width="34" height="35" as="geometry" />
        </mxCell>
        <mxCell id="vwxL3VdeQS7a6y01JX-I-21" value="&lt;font style=&quot;font-size: 12px&quot;&gt;Autoscaling Group&lt;/font&gt;" style="text;html=1;strokeColor=none;fillColor=none;align=center;verticalAlign=middle;whiteSpace=wrap;rounded=0;dashed=1;fontSize=11;fontColor=#FFB570;" parent="1" vertex="1">
          <mxGeometry x="160" y="597.5" width="110" height="20" as="geometry" />
        </mxCell>
        <mxCell id="vwxL3VdeQS7a6y01JX-I-22" value="" style="shape=image;verticalLabelPosition=bottom;labelBackgroundColor=#ffffff;verticalAlign=top;aspect=fixed;imageAspect=0;image=data:image/png,iVBORw0KGgoAAAANSUhEUgAAALoAAAB5CAYAAACOcjvrAAAEzElEQVR4Ae3dT6obRxDHcR3FyxzDBwvkBF7kAL6JQ1bGK5MTJIEskl0cksUjmDCh9TyFnsQwYmZkuqo/A0Ie9R9VfX8/9FrdqHyapmn69dPTdPr23c3jx1/+bM1xvX778abPdz/8HO3tH+3+eq5Xb96/6OP9nnHg+fX8cmrInz7/NzVTXz8+PX1+YdCffv/7pk8z7eXV7q/n+fDbX5ddvN8XGng+f8h+Db+cjf7ChW4QKEjg1P58tk8WFwIVCbRVyXk53dbT7U+HC4GKBOL7IKNXlFdOMwFGn0l4Lk2A0UvLK7mZQBi9LdTbjQuBigTC6BWTkxMC1wTso18TcV+SAKOXlFVS1wRO1ujXSNxXJHCyj15RVjnNBOLLKKPPSDxXJMDoFVWV0w0BRr9B4oWKBBi9oqpyuiEQRr9p8QIChQjMPyqyj15IVKksE2D0ZTZaChFg9EJiSmWZgAOjZTZaChD4459/p3O1BQdGBdSUwiKB2HVh9EVGGgoQYPQCIkphnQCjrzPSowCBMHordXFdkatAflJA4Ewg6rrggcAIBOyjj6CyHCdGZ4IhCKi9OITM4yYZa3T76OOaYITMY9eF0UeQe9wcGX1c7YfKnNGHknvcZMPo6rqMa4IRMg+jj5CsHBGwj84DQxBg9CFklqTaizwwBAE/pRtC5nGTjC+jDozGNcEImTP6CCrL8fzfFrUPc0sXZihNwCd6aXklNxMIo88veEagIgG1FyuqKqdFAg6MFtFoqESA0SupKZdFAnZdFtFoqEBA7cUKKsphlUDsujgZXWWlQ2ICjJ5YPKHfT4DR72elZ2ICYXS1FxOrKPRVAlHXZbWnDggUIGAfvYCIUlgnwOjrjPQoQEDtxQIiSmGZQKzR7aMvQ9KSn0DsujB6fjFlsEyA0ZfZaClEgNELiSmVZQJhdLUXlyFpyU8gjJ4/FRkgsE7APvo6Iz0KEGD0AiJKYZ2A2ovrjPQoQMBP6QqIKIVlAvFl1IHRMiQt+Qkwen4NZXAHAUa/A5Iu+Qkwen4NZXAHgTD6HX11QSAtAbUX00on8C0EHBhtoWZMOgKMnk4yAW8h4MBoCzVj0hBQezGNVALdQyB2XZyM7sFobO8EGL13hcR3CAFGPwSjSXonEEZXe7F3qcS3h0DUddkzibEIZCFgHz2LUuLcRYDRd+EzOAsBtRezKCXOTQRijW4ffRM/g5IQiF0XRk+imDA3EWD0TdgMykaA0bMpJt5NBMLoai9u4mdQEgJh9CTxChOBXQTso+/CZ3AWAoyeRSlx7iKg9uIufAZnIeCndFmUEucmAvFl1IHRJn4GJSHA6EmEEuY+Aoy+j5/RSQgwehKhhLmPQBh93zRGI9A3AbUX+9ZHdAcTcGB0MFDT9UmA0fvURVQHE3BgdDBQ0/VFQO3FvvQQzYMIxK6Lk9EHETZtFwQYvQsZBPFoAoz+aMLm74JAGF3txS70EMSDCERdlwfNb1oEuiJgH70rOQTzKAKM/iiy5u2KgNqLXckhmKMJxBrdPvrRaM3XE4HYdWH0nmQRy9EEGP1ooubrkgCjdymLoI4mEEZ//fbj1JYv7fHqzfsX7xOdvrTP/doh0+V1Ocfcp9V0vLza/dw2P3u/Z+54vpse5Zf2ZfSb7z9M/wPvVZSZlaiemAAAAABJRU5ErkJggg==;" parent="1" vertex="1">
          <mxGeometry x="153.56" y="666.35" width="226.44" height="147.31" as="geometry" />
        </mxCell>
        <mxCell id="vwxL3VdeQS7a6y01JX-I-23" value="" style="shape=image;verticalLabelPosition=bottom;labelBackgroundColor=#ffffff;verticalAlign=top;aspect=fixed;imageAspect=0;image=data:image/png,iVBORw0KGgoAAAANSUhEUgAAALoAAAB5CAYAAACOcjvrAAAEzElEQVR4Ae3dT6obRxDHcR3FyxzDBwvkBF7kAL6JQ1bGK5MTJIEskl0cksUjmDCh9TyFnsQwYmZkuqo/A0Ie9R9VfX8/9FrdqHyapmn69dPTdPr23c3jx1/+bM1xvX778abPdz/8HO3tH+3+eq5Xb96/6OP9nnHg+fX8cmrInz7/NzVTXz8+PX1+YdCffv/7pk8z7eXV7q/n+fDbX5ddvN8XGng+f8h+Db+cjf7ChW4QKEjg1P58tk8WFwIVCbRVyXk53dbT7U+HC4GKBOL7IKNXlFdOMwFGn0l4Lk2A0UvLK7mZQBi9LdTbjQuBigTC6BWTkxMC1wTso18TcV+SAKOXlFVS1wRO1ujXSNxXJHCyj15RVjnNBOLLKKPPSDxXJMDoFVWV0w0BRr9B4oWKBBi9oqpyuiEQRr9p8QIChQjMPyqyj15IVKksE2D0ZTZaChFg9EJiSmWZgAOjZTZaChD4459/p3O1BQdGBdSUwiKB2HVh9EVGGgoQYPQCIkphnQCjrzPSowCBMHordXFdkatAflJA4Ewg6rrggcAIBOyjj6CyHCdGZ4IhCKi9OITM4yYZa3T76OOaYITMY9eF0UeQe9wcGX1c7YfKnNGHknvcZMPo6rqMa4IRMg+jj5CsHBGwj84DQxBg9CFklqTaizwwBAE/pRtC5nGTjC+jDozGNcEImTP6CCrL8fzfFrUPc0sXZihNwCd6aXklNxMIo88veEagIgG1FyuqKqdFAg6MFtFoqESA0SupKZdFAnZdFtFoqEBA7cUKKsphlUDsujgZXWWlQ2ICjJ5YPKHfT4DR72elZ2ICYXS1FxOrKPRVAlHXZbWnDggUIGAfvYCIUlgnwOjrjPQoQEDtxQIiSmGZQKzR7aMvQ9KSn0DsujB6fjFlsEyA0ZfZaClEgNELiSmVZQJhdLUXlyFpyU8gjJ4/FRkgsE7APvo6Iz0KEGD0AiJKYZ2A2ovrjPQoQMBP6QqIKIVlAvFl1IHRMiQt+Qkwen4NZXAHAUa/A5Iu+Qkwen4NZXAHgTD6HX11QSAtAbUX00on8C0EHBhtoWZMOgKMnk4yAW8h4MBoCzVj0hBQezGNVALdQyB2XZyM7sFobO8EGL13hcR3CAFGPwSjSXonEEZXe7F3qcS3h0DUddkzibEIZCFgHz2LUuLcRYDRd+EzOAsBtRezKCXOTQRijW4ffRM/g5IQiF0XRk+imDA3EWD0TdgMykaA0bMpJt5NBMLoai9u4mdQEgJh9CTxChOBXQTso+/CZ3AWAoyeRSlx7iKg9uIufAZnIeCndFmUEucmAvFl1IHRJn4GJSHA6EmEEuY+Aoy+j5/RSQgwehKhhLmPQBh93zRGI9A3AbUX+9ZHdAcTcGB0MFDT9UmA0fvURVQHE3BgdDBQ0/VFQO3FvvQQzYMIxK6Lk9EHETZtFwQYvQsZBPFoAoz+aMLm74JAGF3txS70EMSDCERdlwfNb1oEuiJgH70rOQTzKAKM/iiy5u2KgNqLXckhmKMJxBrdPvrRaM3XE4HYdWH0nmQRy9EEGP1ooubrkgCjdymLoI4mEEZ//fbj1JYv7fHqzfsX7xOdvrTP/doh0+V1Ocfcp9V0vLza/dw2P3u/Z+54vpse5Zf2ZfSb7z9M/wPvVZSZlaiemAAAAABJRU5ErkJggg==;" parent="1" vertex="1">
          <mxGeometry x="401.56" y="666.35" width="226.44" height="147.31" as="geometry" />
        </mxCell>
        <mxCell id="vwxL3VdeQS7a6y01JX-I-24" value="" style="shape=image;verticalLabelPosition=bottom;labelBackgroundColor=#ffffff;verticalAlign=top;aspect=fixed;imageAspect=0;image=data:image/png,iVBORw0KGgoAAAANSUhEUgAAALoAAAB5CAYAAACOcjvrAAAEzElEQVR4Ae3dT6obRxDHcR3FyxzDBwvkBF7kAL6JQ1bGK5MTJIEskl0cksUjmDCh9TyFnsQwYmZkuqo/A0Ie9R9VfX8/9FrdqHyapmn69dPTdPr23c3jx1/+bM1xvX778abPdz/8HO3tH+3+eq5Xb96/6OP9nnHg+fX8cmrInz7/NzVTXz8+PX1+YdCffv/7pk8z7eXV7q/n+fDbX5ddvN8XGng+f8h+Db+cjf7ChW4QKEjg1P58tk8WFwIVCbRVyXk53dbT7U+HC4GKBOL7IKNXlFdOMwFGn0l4Lk2A0UvLK7mZQBi9LdTbjQuBigTC6BWTkxMC1wTso18TcV+SAKOXlFVS1wRO1ujXSNxXJHCyj15RVjnNBOLLKKPPSDxXJMDoFVWV0w0BRr9B4oWKBBi9oqpyuiEQRr9p8QIChQjMPyqyj15IVKksE2D0ZTZaChFg9EJiSmWZgAOjZTZaChD4459/p3O1BQdGBdSUwiKB2HVh9EVGGgoQYPQCIkphnQCjrzPSowCBMHordXFdkatAflJA4Ewg6rrggcAIBOyjj6CyHCdGZ4IhCKi9OITM4yYZa3T76OOaYITMY9eF0UeQe9wcGX1c7YfKnNGHknvcZMPo6rqMa4IRMg+jj5CsHBGwj84DQxBg9CFklqTaizwwBAE/pRtC5nGTjC+jDozGNcEImTP6CCrL8fzfFrUPc0sXZihNwCd6aXklNxMIo88veEagIgG1FyuqKqdFAg6MFtFoqESA0SupKZdFAnZdFtFoqEBA7cUKKsphlUDsujgZXWWlQ2ICjJ5YPKHfT4DR72elZ2ICYXS1FxOrKPRVAlHXZbWnDggUIGAfvYCIUlgnwOjrjPQoQEDtxQIiSmGZQKzR7aMvQ9KSn0DsujB6fjFlsEyA0ZfZaClEgNELiSmVZQJhdLUXlyFpyU8gjJ4/FRkgsE7APvo6Iz0KEGD0AiJKYZ2A2ovrjPQoQMBP6QqIKIVlAvFl1IHRMiQt+Qkwen4NZXAHAUa/A5Iu+Qkwen4NZXAHgTD6HX11QSAtAbUX00on8C0EHBhtoWZMOgKMnk4yAW8h4MBoCzVj0hBQezGNVALdQyB2XZyM7sFobO8EGL13hcR3CAFGPwSjSXonEEZXe7F3qcS3h0DUddkzibEIZCFgHz2LUuLcRYDRd+EzOAsBtRezKCXOTQRijW4ffRM/g5IQiF0XRk+imDA3EWD0TdgMykaA0bMpJt5NBMLoai9u4mdQEgJh9CTxChOBXQTso+/CZ3AWAoyeRSlx7iKg9uIufAZnIeCndFmUEucmAvFl1IHRJn4GJSHA6EmEEuY+Aoy+j5/RSQgwehKhhLmPQBh93zRGI9A3AbUX+9ZHdAcTcGB0MFDT9UmA0fvURVQHE3BgdDBQ0/VFQO3FvvQQzYMIxK6Lk9EHETZtFwQYvQsZBPFoAoz+aMLm74JAGF3txS70EMSDCERdlwfNb1oEuiJgH70rOQTzKAKM/iiy5u2KgNqLXckhmKMJxBrdPvrRaM3XE4HYdWH0nmQRy9EEGP1ooubrkgCjdymLoI4mEEZ//fbj1JYv7fHqzfsX7xOdvrTP/doh0+V1Ocfcp9V0vLza/dw2P3u/Z+54vpse5Zf2ZfSb7z9M/wPvVZSZlaiemAAAAABJRU5ErkJggg==;" parent="1" vertex="1">
          <mxGeometry x="650" y="666.35" width="226.44" height="147.31" as="geometry" />
        </mxCell>
        <mxCell id="vwxL3VdeQS7a6y01JX-I-25" value="Availability Zone" style="text;html=1;strokeColor=none;fillColor=none;align=center;verticalAlign=middle;whiteSpace=wrap;rounded=0;dashed=1;fontSize=12;fontColor=#FFB570;" parent="1" vertex="1">
          <mxGeometry x="180" y="790" width="160" height="20" as="geometry" />
        </mxCell>
        <mxCell id="vwxL3VdeQS7a6y01JX-I-26" value="Availability Zone" style="text;html=1;strokeColor=none;fillColor=none;align=center;verticalAlign=middle;whiteSpace=wrap;rounded=0;dashed=1;fontSize=12;fontColor=#FFB570;" parent="1" vertex="1">
          <mxGeometry x="434.78000000000003" y="790" width="160" height="20" as="geometry" />
        </mxCell>
        <mxCell id="vwxL3VdeQS7a6y01JX-I-27" value="Availability Zone" style="text;html=1;strokeColor=none;fillColor=none;align=center;verticalAlign=middle;whiteSpace=wrap;rounded=0;dashed=1;fontSize=12;fontColor=#FFB570;" parent="1" vertex="1">
          <mxGeometry x="690" y="790" width="160" height="20" as="geometry" />
        </mxCell>
        <mxCell id="vwxL3VdeQS7a6y01JX-I-30" value="" style="outlineConnect=0;fontColor=#232F3E;gradientColor=none;fillColor=#D86613;strokeColor=none;dashed=0;verticalLabelPosition=bottom;verticalAlign=top;align=center;html=1;fontSize=12;fontStyle=0;aspect=fixed;pointerEvents=1;shape=mxgraph.aws4.instances;" parent="1" vertex="1">
          <mxGeometry x="225" y="678.73" width="70" height="70" as="geometry" />
        </mxCell>
        <mxCell id="vwxL3VdeQS7a6y01JX-I-31" value="" style="outlineConnect=0;fontColor=#232F3E;gradientColor=none;fillColor=#D86613;strokeColor=none;dashed=0;verticalLabelPosition=bottom;verticalAlign=top;align=center;html=1;fontSize=12;fontStyle=0;aspect=fixed;pointerEvents=1;shape=mxgraph.aws4.instances;" parent="1" vertex="1">
          <mxGeometry x="475.93" y="678.73" width="70" height="70" as="geometry" />
        </mxCell>
        <mxCell id="vwxL3VdeQS7a6y01JX-I-32" value="" style="outlineConnect=0;fontColor=#232F3E;gradientColor=none;fillColor=#D86613;strokeColor=none;dashed=0;verticalLabelPosition=bottom;verticalAlign=top;align=center;html=1;fontSize=12;fontStyle=0;aspect=fixed;pointerEvents=1;shape=mxgraph.aws4.instances;" parent="1" vertex="1">
          <mxGeometry x="728.22" y="678.73" width="70" height="70" as="geometry" />
        </mxCell>
        <mxCell id="vwxL3VdeQS7a6y01JX-I-33" value="&lt;font style=&quot;font-size: 12px&quot;&gt;Instances&lt;/font&gt;" style="text;html=1;strokeColor=none;fillColor=none;align=center;verticalAlign=middle;whiteSpace=wrap;rounded=0;dashed=1;fontSize=11;fontColor=#FFB570;" parent="1" vertex="1">
          <mxGeometry x="170" y="748.73" width="110" height="20" as="geometry" />
        </mxCell>
        <mxCell id="vwxL3VdeQS7a6y01JX-I-34" value="&lt;font style=&quot;font-size: 12px&quot;&gt;Instances&lt;/font&gt;" style="text;html=1;strokeColor=none;fillColor=none;align=center;verticalAlign=middle;whiteSpace=wrap;rounded=0;dashed=1;fontSize=11;fontColor=#FFB570;" parent="1" vertex="1">
          <mxGeometry x="420" y="750" width="110" height="20" as="geometry" />
        </mxCell>
        <mxCell id="vwxL3VdeQS7a6y01JX-I-35" value="&lt;font style=&quot;font-size: 12px&quot;&gt;Instances&lt;/font&gt;" style="text;html=1;strokeColor=none;fillColor=none;align=center;verticalAlign=middle;whiteSpace=wrap;rounded=0;dashed=1;fontSize=11;fontColor=#FFB570;" parent="1" vertex="1">
          <mxGeometry x="708.22" y="748.73" width="110" height="20" as="geometry" />
        </mxCell>
        <mxCell id="vwxL3VdeQS7a6y01JX-I-42" value="" style="endArrow=none;html=1;fontSize=12;fontColor=#FFB570;edgeStyle=orthogonalEdgeStyle;strokeWidth=3;strokeColor=#7EA6E0;" parent="1" source="vwxL3VdeQS7a6y01JX-I-30" target="vwxL3VdeQS7a6y01JX-I-36" edge="1">
          <mxGeometry width="50" height="50" relative="1" as="geometry">
            <mxPoint x="265" y="647.5" as="sourcePoint" />
            <mxPoint x="315" y="597.5" as="targetPoint" />
            <Array as="points">
              <mxPoint x="267" y="550" />
            </Array>
          </mxGeometry>
        </mxCell>
        <mxCell id="vwxL3VdeQS7a6y01JX-I-36" value="" style="outlineConnect=0;fontColor=#232F3E;gradientColor=#F78E04;gradientDirection=north;fillColor=#D05C17;strokeColor=#ffffff;dashed=0;verticalLabelPosition=bottom;verticalAlign=top;align=center;html=1;fontSize=12;fontStyle=0;aspect=fixed;shape=mxgraph.aws4.resourceIcon;resIcon=mxgraph.aws4.elastic_load_balancing;" parent="1" vertex="1">
          <mxGeometry x="502.13" y="522" width="55.93" height="55.93" as="geometry" />
        </mxCell>
        <mxCell id="vwxL3VdeQS7a6y01JX-I-48" value="" style="endArrow=none;html=1;fontSize=12;fontColor=#FFB570;edgeStyle=orthogonalEdgeStyle;entryX=0.498;entryY=1.037;entryDx=0;entryDy=0;entryPerimeter=0;strokeWidth=3;fillColor=#dae8fc;strokeColor=#6c8ebf;" parent="1" source="vwxL3VdeQS7a6y01JX-I-31" target="vwxL3VdeQS7a6y01JX-I-36" edge="1">
          <mxGeometry width="50" height="50" relative="1" as="geometry">
            <mxPoint x="276.78" y="676.3499999999999" as="sourcePoint" />
            <mxPoint x="512.1300000000001" y="560" as="targetPoint" />
            <Array as="points">
              <mxPoint x="515" y="620" />
              <mxPoint x="530" y="620" />
            </Array>
          </mxGeometry>
        </mxCell>
        <mxCell id="vwxL3VdeQS7a6y01JX-I-49" value="" style="endArrow=none;html=1;fontSize=12;fontColor=#FFB570;edgeStyle=orthogonalEdgeStyle;strokeWidth=3;strokeColor=#7EA6E0;" parent="1" target="vwxL3VdeQS7a6y01JX-I-36" edge="1" source="vwxL3VdeQS7a6y01JX-I-32">
          <mxGeometry width="50" height="50" relative="1" as="geometry">
            <mxPoint x="760" y="665.6899999999999" as="sourcePoint" />
            <mxPoint x="995.3500000000001" y="549.34" as="targetPoint" />
            <Array as="points">
              <mxPoint x="760" y="549" />
            </Array>
          </mxGeometry>
        </mxCell>
        <mxCell id="vwxL3VdeQS7a6y01JX-I-51" value="Elastic Load Balance" style="text;html=1;strokeColor=none;fillColor=none;align=center;verticalAlign=middle;whiteSpace=wrap;rounded=0;dashed=1;fontSize=12;fontColor=#FFB570;" parent="1" vertex="1">
          <mxGeometry x="545.93" y="550" width="140" height="20" as="geometry" />
        </mxCell>
        <mxCell id="iIRdwADv-YQt1JR7OJcL-1" value="Amazon Route 53" style="outlineConnect=0;fontColor=#232F3E;gradientColor=none;strokeColor=#ffffff;fillColor=#232F3E;dashed=0;verticalLabelPosition=middle;verticalAlign=bottom;align=center;html=1;whiteSpace=wrap;fontSize=10;fontStyle=1;spacing=3;shape=mxgraph.aws4.productIcon;prIcon=mxgraph.aws4.route_53;" vertex="1" parent="1">
          <mxGeometry x="497.6" y="370" width="65" height="90" as="geometry" />
        </mxCell>
        <mxCell id="iIRdwADv-YQt1JR7OJcL-5" value="" style="edgeStyle=orthogonalEdgeStyle;rounded=0;orthogonalLoop=1;jettySize=auto;html=1;fontSize=12;fontColor=#FFB570;" edge="1" parent="1" source="iIRdwADv-YQt1JR7OJcL-2" target="vwxL3VdeQS7a6y01JX-I-32">
          <mxGeometry relative="1" as="geometry">
            <Array as="points">
              <mxPoint x="850" y="730" />
              <mxPoint x="850" y="730" />
            </Array>
          </mxGeometry>
        </mxCell>
        <mxCell id="iIRdwADv-YQt1JR7OJcL-2" value="" style="outlineConnect=0;fontColor=#232F3E;gradientColor=none;fillColor=#277116;strokeColor=none;dashed=0;verticalLabelPosition=bottom;verticalAlign=top;align=center;html=1;fontSize=12;fontStyle=0;aspect=fixed;pointerEvents=1;shape=mxgraph.aws4.bucket_with_objects;" vertex="1" parent="1">
          <mxGeometry x="990" y="695" width="67.31" height="70" as="geometry" />
        </mxCell>
        <mxCell id="iIRdwADv-YQt1JR7OJcL-3" value="&lt;font color=&quot;#67ab9f&quot;&gt;S3 Bucket&lt;/font&gt;" style="text;html=1;strokeColor=none;fillColor=none;align=center;verticalAlign=middle;whiteSpace=wrap;rounded=0;dashed=1;fontSize=12;fontColor=#FFB570;" vertex="1" parent="1">
          <mxGeometry x="990" y="770" width="66" height="20" as="geometry" />
        </mxCell>
        <mxCell id="iIRdwADv-YQt1JR7OJcL-6" value="" style="endArrow=classic;html=1;fontSize=12;fontColor=#FFB570;edgeStyle=orthogonalEdgeStyle;" edge="1" parent="1" source="iIRdwADv-YQt1JR7OJcL-2" target="vwxL3VdeQS7a6y01JX-I-31">
          <mxGeometry width="50" height="50" relative="1" as="geometry">
            <mxPoint x="890" y="798.73" as="sourcePoint" />
            <mxPoint x="940" y="748.73" as="targetPoint" />
            <Array as="points">
              <mxPoint x="930" y="730" />
              <mxPoint x="930" y="780" />
              <mxPoint x="511" y="780" />
            </Array>
          </mxGeometry>
        </mxCell>
        <mxCell id="iIRdwADv-YQt1JR7OJcL-9" value="" style="endArrow=classic;html=1;fontSize=12;fontColor=#FFB570;edgeStyle=orthogonalEdgeStyle;" edge="1" parent="1" target="vwxL3VdeQS7a6y01JX-I-30">
          <mxGeometry width="50" height="50" relative="1" as="geometry">
            <mxPoint x="990" y="730" as="sourcePoint" />
            <mxPoint x="521" y="758.73" as="targetPoint" />
            <Array as="points">
              <mxPoint x="930" y="730" />
              <mxPoint x="930" y="780" />
              <mxPoint x="260" y="780" />
            </Array>
          </mxGeometry>
        </mxCell>
        <mxCell id="iIRdwADv-YQt1JR7OJcL-16" value="" style="endArrow=none;html=1;fontSize=12;fontColor=#FFB570;strokeWidth=3;strokeColor=#7EA6E0;" edge="1" parent="1" source="vwxL3VdeQS7a6y01JX-I-36" target="iIRdwADv-YQt1JR7OJcL-1">
          <mxGeometry width="50" height="50" relative="1" as="geometry">
            <mxPoint x="480" y="540" as="sourcePoint" />
            <mxPoint x="530" y="490" as="targetPoint" />
          </mxGeometry>
        </mxCell>
        <mxCell id="iIRdwADv-YQt1JR7OJcL-17" value="" style="outlineConnect=0;dashed=0;verticalLabelPosition=bottom;verticalAlign=top;align=center;html=1;shape=mxgraph.aws3.users;fillColor=#D2D3D3;gradientColor=none;strokeColor=#FFFFFF;strokeWidth=3;fontSize=12;fontColor=#FFB570;" vertex="1" parent="1">
          <mxGeometry x="502.13" y="230" width="58" height="53" as="geometry" />
        </mxCell>
        <mxCell id="iIRdwADv-YQt1JR7OJcL-20" value="" style="endArrow=none;html=1;fontSize=12;fontColor=#FFB570;strokeWidth=3;strokeColor=#7EA6E0;" edge="1" parent="1">
          <mxGeometry width="50" height="50" relative="1" as="geometry">
            <mxPoint x="530" y="370" as="sourcePoint" />
            <mxPoint x="530" y="290" as="targetPoint" />
          </mxGeometry>
        </mxCell>
      </root>
    </mxGraphModel>
  </diagram>
</mxfile>
